<svg xmlns="http://www.w3.org/2000/svg" width="397.1" height="338" overflow="scroll"><style>.st0{fill:#fff}</style><path class="st0" d="M167.1 23.3c-4.3-1.2-7.2-1.5-15.8-1.5H62.2v56.7h78c9.3 0 22.3 0 30.9-2.9 17.3-5.8 17.6-19.9 17.6-24.8-.1-4.4-1.1-22.5-21.6-27.5"/><path class="st0" d="M364.3 137.6c-3-4.2-6.5-7.6-10.4-10.7-2.6-3.3-5.6-6.3-8.8-8.8-2.6-3.3-5.6-6.3-8.8-8.8-2.6-3.3-5.6-6.3-8.8-8.8-2.6-3.3-5.6-6.3-8.8-8.8-2.6-3.3-5.6-6.3-8.8-8.8-2.6-3.3-5.6-6.3-8.8-8.8-2.6-3.3-5.6-6.3-8.8-8.8-2.6-3.3-5.6-6.3-8.8-8.8-2.6-3.3-5.6-6.3-8.8-8.8-2.6-3.3-5.6-6.3-8.8-8.8-2.6-3.3-5.6-6.3-8.8-8.8-2.6-3.3-5.6-6.3-8.8-8.8-2.5-3.1-5.3-5.8-8.3-8.2.3.4.7.8 1.1 1.3 4.7 6.1 11.1 18.7 11.1 36.8 0 4.4-.4 17.5-7.2 29.5-1.4 2.9-4 7.3-9.7 12.6-2.5 2.3-7.9 7.3-16.5 11.7-19.7 9.6-45.6 10.2-67.9 10.2H62.5v77.7H0l123.6 123.6h62.5v-77.7h88.4c22.3 0 48.1-.6 67.9-10.2 8.6-4.4 14-9.3 16.5-11.7 5.7-5.3 8.3-9.6 9.7-12.6 6.8-12 7.2-25.1 7.2-29.5-.3-18.5-6.8-31.1-11.5-37.2"/></svg>